<svg width="14" height="16" viewBox="0 0 14 16" fill="none" xmlns="http://www.w3.org/2000/svg">
<path d="M12.7485 9C13.3008 9 13.7485 8.55228 13.7485 8C13.7485 7.44772 13.3008 7 12.7485 7V9ZM0.292794 7.29289C-0.0977306 7.68342 -0.0977306 8.31658 0.292794 8.70711L6.65675 15.0711C7.04728 15.4616 7.68044 15.4616 8.07097 15.0711C8.46149 14.6805 8.46149 14.0474 8.07097 13.6569L2.41411 8L8.07097 2.34315C8.46149 1.95262 8.46149 1.31946 8.07097 0.928932C7.68044 0.538408 7.04728 0.538408 6.65675 0.928932L0.292794 7.29289ZM12.7485 7L0.999901 7V9L12.7485 9V7Z" fill="#424242"/>
</svg>
