<svg width="14" height="16" viewBox="0 0 14 16" fill="none" xmlns="http://www.w3.org/2000/svg">
<path d="M1.25146 9C0.69918 9 0.251465 8.55228 0.251465 8C0.251465 7.44772 0.69918 7 1.25146 7V9ZM13.7072 7.29289C14.0977 7.68342 14.0977 8.31658 13.7072 8.70711L7.34325 15.0711C6.95272 15.4616 6.31956 15.4616 5.92903 15.0711C5.53851 14.6805 5.53851 14.0474 5.92903 13.6569L11.5859 8L5.92903 2.34315C5.53851 1.95262 5.53851 1.31946 5.92903 0.928932C6.31956 0.538408 6.95272 0.538408 7.34325 0.928932L13.7072 7.29289ZM1.25146 7L13.0001 7V9L1.25146 9V7Z" fill="#424242"/>
</svg>
