<svg width="16" height="16" viewBox="0 0 16 16" fill="none" xmlns="http://www.w3.org/2000/svg">
<path opacity="0.4" d="M8.00073 11.5666C8.28893 11.5666 8.56533 11.4522 8.76912 11.2484C8.97291 11.0446 9.0874 10.7682 9.0874 10.48C9.0874 10.1918 8.97291 9.91538 8.76912 9.71159C8.56533 9.5078 8.28893 9.39331 8.00073 9.39331C7.71253 9.39331 7.43613 9.5078 7.23234 9.71159C7.02855 9.91538 6.91406 10.1918 6.91406 10.48C6.91406 10.7682 7.02855 11.0446 7.23234 11.2484C7.43613 11.4522 7.71253 11.5666 8.00073 11.5666Z" fill="#F97316"/>
<path d="M11.0999 6.29395H4.89992C2.16659 6.29395 1.33325 7.12728 1.33325 9.86061V11.1006C1.33325 13.8339 2.16659 14.6673 4.89992 14.6673H11.0999C13.8333 14.6673 14.6666 13.8339 14.6666 11.1006V9.86061C14.6666 7.12728 13.8333 6.29395 11.0999 6.29395ZM7.99992 12.4939C6.88658 12.4939 5.98658 11.5873 5.98658 10.4806C5.98658 9.37395 6.88658 8.46728 7.99992 8.46728C9.11325 8.46728 10.0133 9.37395 10.0133 10.4806C10.0133 11.5873 9.11325 12.4939 7.99992 12.4939Z" fill="#F97316"/>
<path opacity="0.4" d="M4.74608 6.30004V5.52004C4.74608 3.56671 5.29941 2.26671 7.99941 2.26671C10.6994 2.26671 11.2527 3.56671 11.2527 5.52004V6.30004C11.5927 6.30671 11.8994 6.32004 12.1861 6.36004V5.52004C12.1861 3.72004 11.7527 1.33337 7.99941 1.33337C4.24608 1.33337 3.81274 3.72004 3.81274 5.52004V6.35337C4.09274 6.32004 4.40608 6.30004 4.74608 6.30004Z" fill="#F97316"/>
</svg>
