<svg width="165" height="51" viewBox="0 0 165 51" fill="none" xmlns="http://www.w3.org/2000/svg">
<path d="M29.052 15.98V41H24.948V23.864L17.316 41H14.472L6.804 23.864V41H2.7V15.98H7.128L15.912 35.6L24.66 15.98H29.052ZM38.3341 18.536C37.5901 18.536 36.9661 18.284 36.4621 17.78C35.9581 17.276 35.7061 16.652 35.7061 15.908C35.7061 15.164 35.9581 14.54 36.4621 14.036C36.9661 13.532 37.5901 13.28 38.3341 13.28C39.0541 13.28 39.6661 13.532 40.1701 14.036C40.6741 14.54 40.9261 15.164 40.9261 15.908C40.9261 16.652 40.6741 17.276 40.1701 17.78C39.6661 18.284 39.0541 18.536 38.3341 18.536ZM40.3501 21.164V41H36.2461V21.164H40.3501ZM57.5463 20.84C59.1063 20.84 60.4983 21.164 61.7223 21.812C62.9703 22.46 63.9423 23.42 64.6383 24.692C65.3343 25.964 65.6823 27.5 65.6823 29.3V41H61.6143V29.912C61.6143 28.136 61.1703 26.78 60.2823 25.844C59.3943 24.884 58.1823 24.404 56.6463 24.404C55.1103 24.404 53.8863 24.884 52.9743 25.844C52.0863 26.78 51.6423 28.136 51.6423 29.912V41H47.5383V21.164H51.6423V23.432C52.3143 22.616 53.1663 21.98 54.1983 21.524C55.2543 21.068 56.3703 20.84 57.5463 20.84ZM80.7092 20.84C82.2452 20.84 83.6012 21.152 84.7772 21.776C85.9772 22.376 86.9132 23.132 87.5852 24.044V21.164H91.7252V41.324C91.7252 43.148 91.3412 44.768 90.5732 46.184C89.8052 47.624 88.6892 48.752 87.2252 49.568C85.7852 50.384 84.0572 50.792 82.0412 50.792C79.3532 50.792 77.1212 50.156 75.3452 48.884C73.5692 47.636 72.5612 45.932 72.3212 43.772H76.3892C76.7012 44.804 77.3612 45.632 78.3692 46.256C79.4012 46.904 80.6252 47.228 82.0412 47.228C83.6972 47.228 85.0292 46.724 86.0372 45.716C87.0692 44.708 87.5852 43.244 87.5852 41.324V38.012C86.8892 38.948 85.9412 39.74 84.7412 40.388C83.5652 41.012 82.2212 41.324 80.7092 41.324C78.9812 41.324 77.3972 40.892 75.9572 40.028C74.5412 39.14 73.4132 37.916 72.5732 36.356C71.7572 34.772 71.3492 32.984 71.3492 30.992C71.3492 29 71.7572 27.236 72.5732 25.7C73.4132 24.164 74.5412 22.976 75.9572 22.136C77.3972 21.272 78.9812 20.84 80.7092 20.84ZM87.5852 31.064C87.5852 29.696 87.2972 28.508 86.7212 27.5C86.1692 26.492 85.4372 25.724 84.5252 25.196C83.6132 24.668 82.6292 24.404 81.5732 24.404C80.5172 24.404 79.5332 24.668 78.6212 25.196C77.7092 25.7 76.9652 26.456 76.3892 27.464C75.8372 28.448 75.5612 29.624 75.5612 30.992C75.5612 32.36 75.8372 33.56 76.3892 34.592C76.9652 35.624 77.7092 36.416 78.6212 36.968C79.5572 37.496 80.5412 37.76 81.5732 37.76C82.6292 37.76 83.6132 37.496 84.5252 36.968C85.4372 36.44 86.1692 35.672 86.7212 34.664C87.2972 33.632 87.5852 32.432 87.5852 31.064ZM97.5476 30.992C97.5476 29 97.9556 27.236 98.7716 25.7C99.6116 24.164 100.74 22.976 102.156 22.136C103.596 21.272 105.18 20.84 106.908 20.84C108.468 20.84 109.824 21.152 110.976 21.776C112.152 22.376 113.088 23.132 113.784 24.044V21.164H117.924V41H113.784V38.048C113.088 38.984 112.14 39.764 110.94 40.388C109.74 41.012 108.372 41.324 106.836 41.324C105.132 41.324 103.572 40.892 102.156 40.028C100.74 39.14 99.6116 37.916 98.7716 36.356C97.9556 34.772 97.5476 32.984 97.5476 30.992ZM113.784 31.064C113.784 29.696 113.496 28.508 112.92 27.5C112.368 26.492 111.636 25.724 110.724 25.196C109.812 24.668 108.828 24.404 107.772 24.404C106.716 24.404 105.732 24.668 104.82 25.196C103.908 25.7 103.164 26.456 102.588 27.464C102.036 28.448 101.76 29.624 101.76 30.992C101.76 32.36 102.036 33.56 102.588 34.592C103.164 35.624 103.908 36.416 104.82 36.968C105.756 37.496 106.74 37.76 107.772 37.76C108.828 37.76 109.812 37.496 110.724 36.968C111.636 36.44 112.368 35.672 112.92 34.664C113.496 33.632 113.784 32.432 113.784 31.064Z" fill="#F97316"/>
<path d="M132.08 6.36V10.12H161.76V6.36H132.08ZM134.92 16.96V20.08H143.24V16.96H134.92ZM134.04 21.56V24.68H143.28V21.56H134.04ZM150.48 21.56V24.68H159.84V21.56H150.48ZM150.48 16.96V20.08H158.88V16.96H150.48ZM133.92 32V35.6H157.88V32H133.92ZM132.44 37.6V41.44H158.2V37.6H132.44ZM144.52 7.8V25.12H149.2V7.8H144.52ZM133 26.32V30.08H155.88V42.72H160.64V26.32H133ZM129.36 11.76V20.92H133.6V15.44H160.24V20.92H164.68V11.76H129.36Z" fill="#FAFCFC"/>
<path d="M132.08 6.36V5.36H131.08V6.36H132.08ZM132.08 10.12H131.08V11.12H132.08V10.12ZM161.76 10.12V11.12H162.76V10.12H161.76ZM161.76 6.36H162.76V5.36H161.76V6.36ZM134.92 16.96V15.96H133.92V16.96H134.92ZM134.92 20.08H133.92V21.08H134.92V20.08ZM143.24 20.08V21.08H144.24V20.08H143.24ZM143.24 16.96H144.24V15.96H143.24V16.96ZM134.04 21.56V20.56H133.04V21.56H134.04ZM134.04 24.68H133.04V25.68H134.04V24.68ZM143.28 24.68V25.68H144.28V24.68H143.28ZM143.28 21.56H144.28V20.56H143.28V21.56ZM150.48 21.56V20.56H149.48V21.56H150.48ZM150.48 24.68H149.48V25.68H150.48V24.68ZM159.84 24.68V25.68H160.84V24.68H159.84ZM159.84 21.56H160.84V20.56H159.84V21.56ZM150.48 16.96V15.96H149.48V16.96H150.48ZM150.48 20.08H149.48V21.08H150.48V20.08ZM158.88 20.08V21.08H159.88V20.08H158.88ZM158.88 16.96H159.88V15.96H158.88V16.96ZM133.92 32V31H132.92V32H133.92ZM133.92 35.6H132.92V36.6H133.92V35.6ZM157.88 35.6V36.6H158.88V35.6H157.88ZM157.88 32H158.88V31H157.88V32ZM132.44 37.6V36.6H131.44V37.6H132.44ZM132.44 41.44H131.44V42.44H132.44V41.44ZM158.2 41.44V42.44H159.2V41.44H158.2ZM158.2 37.6H159.2V36.6H158.2V37.6ZM144.52 7.8V6.8H143.52V7.8H144.52ZM144.52 25.12H143.52V26.12H144.52V25.12ZM149.2 25.12V26.12H150.2V25.12H149.2ZM149.2 7.8H150.2V6.8H149.2V7.8ZM133 26.32V25.32H132V26.32H133ZM133 30.08H132V31.08H133V30.08ZM155.88 30.08H156.88V29.08H155.88V30.08ZM155.88 42.72H154.88V43.72H155.88V42.72ZM160.64 42.72V43.72H161.64V42.72H160.64ZM160.64 26.32H161.64V25.32H160.64V26.32ZM129.36 11.76V10.76H128.36V11.76H129.36ZM129.36 20.92H128.36V21.92H129.36V20.92ZM133.6 20.92V21.92H134.6V20.92H133.6ZM133.6 15.44V14.44H132.6V15.44H133.6ZM160.24 15.44H161.24V14.44H160.24V15.44ZM160.24 20.92H159.24V21.92H160.24V20.92ZM164.68 20.92V21.92H165.68V20.92H164.68ZM164.68 11.76H165.68V10.76H164.68V11.76ZM131.08 6.36V10.12H133.08V6.36H131.08ZM132.08 11.12H161.76V9.12H132.08V11.12ZM162.76 10.12V6.36H160.76V10.12H162.76ZM161.76 5.36H132.08V7.36H161.76V5.36ZM133.92 16.96V20.08H135.92V16.96H133.92ZM134.92 21.08H143.24V19.08H134.92V21.08ZM144.24 20.08V16.96H142.24V20.08H144.24ZM143.24 15.96H134.92V17.96H143.24V15.96ZM133.04 21.56V24.68H135.04V21.56H133.04ZM134.04 25.68H143.28V23.68H134.04V25.68ZM144.28 24.68V21.56H142.28V24.68H144.28ZM143.28 20.56H134.04V22.56H143.28V20.56ZM149.48 21.56V24.68H151.48V21.56H149.48ZM150.48 25.68H159.84V23.68H150.48V25.68ZM160.84 24.68V21.56H158.84V24.68H160.84ZM159.84 20.56H150.48V22.56H159.84V20.56ZM149.48 16.96V20.08H151.48V16.96H149.48ZM150.48 21.08H158.88V19.08H150.48V21.08ZM159.88 20.08V16.96H157.88V20.08H159.88ZM158.88 15.96H150.48V17.96H158.88V15.96ZM132.92 32V35.6H134.92V32H132.92ZM133.92 36.6H157.88V34.6H133.92V36.6ZM158.88 35.6V32H156.88V35.6H158.88ZM157.88 31H133.92V33H157.88V31ZM131.44 37.6V41.44H133.44V37.6H131.44ZM132.44 42.44H158.2V40.44H132.44V42.44ZM159.2 41.44V37.6H157.2V41.44H159.2ZM158.2 36.6H132.44V38.6H158.2V36.6ZM143.52 7.8V25.12H145.52V7.8H143.52ZM144.52 26.12H149.2V24.12H144.52V26.12ZM150.2 25.12V7.8H148.2V25.12H150.2ZM149.2 6.8H144.52V8.8H149.2V6.8ZM132 26.32V30.08H134V26.32H132ZM133 31.08H155.88V29.08H133V31.08ZM154.88 30.08V42.72H156.88V30.08H154.88ZM155.88 43.72H160.64V41.72H155.88V43.72ZM161.64 42.72V26.32H159.64V42.72H161.64ZM160.64 25.32H133V27.32H160.64V25.32ZM128.36 11.76V20.92H130.36V11.76H128.36ZM129.36 21.92H133.6V19.92H129.36V21.92ZM134.6 20.92V15.44H132.6V20.92H134.6ZM133.6 16.44H160.24V14.44H133.6V16.44ZM159.24 15.44V20.92H161.24V15.44H159.24ZM160.24 21.92H164.68V19.92H160.24V21.92ZM165.68 20.92V11.76H163.68V20.92H165.68ZM164.68 10.76H129.36V12.76H164.68V10.76Z" fill="#1F1F1F"/>
</svg>
