<svg width="35" height="35" viewBox="0 0 35 35" fill="none" xmlns="http://www.w3.org/2000/svg">
<g filter="url(#filter0_bd_14021_28)">
<rect width="26.5" height="26.5" rx="13.25" transform="matrix(-1 0 0 1 30.5 3)" fill="url(#paint0_linear_14021_28)" fill-opacity="0.5" shape-rendering="crispEdges"/>
<path fill-rule="evenodd" clip-rule="evenodd" d="M22.25 16.25C22.25 16.0015 22.0465 15.8 21.7955 15.8L13.8019 15.8L17.1169 12.5182C17.2944 12.3425 17.2944 12.0575 17.1169 11.8818C16.9394 11.7061 16.6516 11.7061 16.474 11.8818L12.3831 15.9318C12.2056 16.1075 12.2056 16.3925 12.3831 16.5682L16.474 20.6182C16.6516 20.7939 16.9394 20.7939 17.1169 20.6182C17.2944 20.4425 17.2944 20.1575 17.1169 19.9818L13.8019 16.7L21.7955 16.7C22.0465 16.7 22.25 16.4985 22.25 16.25Z" fill="#333333"/>
</g>
<defs>
<filter id="filter0_bd_14021_28" x="-28" y="-29" width="90.5" height="90.5" filterUnits="userSpaceOnUse" color-interpolation-filters="sRGB">
<feFlood flood-opacity="0" result="BackgroundImageFix"/>
<feGaussianBlur in="BackgroundImageFix" stdDeviation="16"/>
<feComposite in2="SourceAlpha" operator="in" result="effect1_backgroundBlur_14021_28"/>
<feColorMatrix in="SourceAlpha" type="matrix" values="0 0 0 0 0 0 0 0 0 0 0 0 0 0 0 0 0 0 127 0" result="hardAlpha"/>
<feOffset dy="1"/>
<feGaussianBlur stdDeviation="2"/>
<feComposite in2="hardAlpha" operator="out"/>
<feColorMatrix type="matrix" values="0 0 0 0 0 0 0 0 0 0 0 0 0 0 0 0 0 0 0.1 0"/>
<feBlend mode="normal" in2="effect1_backgroundBlur_14021_28" result="effect2_dropShadow_14021_28"/>
<feBlend mode="normal" in="SourceGraphic" in2="effect2_dropShadow_14021_28" result="shape"/>
</filter>
<linearGradient id="paint0_linear_14021_28" x1="-2" y1="18.5" x2="67.5" y2="47.5" gradientUnits="userSpaceOnUse">
<stop stop-color="white"/>
<stop offset="1" stop-color="white" stop-opacity="0"/>
</linearGradient>
</defs>
</svg>
