<svg width="410" height="94" viewBox="0 0 410 94" fill="none" xmlns="http://www.w3.org/2000/svg">
<g filter="url(#filter0_d_2597_2484)">
<rect x="7" y="5" width="396" height="80" rx="20" fill="white"/>
</g>
<path d="M52.7279 44.136V42.48L61.1519 30.816H63.7679V42.24H66.1679V44.136H63.7679V48H61.6079V44.136H52.7279ZM61.7039 33.096L55.2479 42.24H61.7039V33.096ZM69.4056 48.144C68.9896 48.144 68.6376 48 68.3496 47.712C68.0616 47.424 67.9176 47.072 67.9176 46.656C67.9176 46.24 68.0616 45.888 68.3496 45.6C68.6376 45.312 68.9896 45.168 69.4056 45.168C69.8056 45.168 70.1416 45.312 70.4136 45.6C70.7016 45.888 70.8456 46.24 70.8456 46.656C70.8456 47.072 70.7016 47.424 70.4136 47.712C70.1416 48 69.8056 48.144 69.4056 48.144ZM84.4527 32.544H76.0287V38.016C76.3967 37.504 76.9407 37.088 77.6607 36.768C78.3807 36.432 79.1567 36.264 79.9887 36.264C81.3167 36.264 82.3967 36.544 83.2287 37.104C84.0607 37.648 84.6527 38.36 85.0047 39.24C85.3727 40.104 85.5567 41.024 85.5567 42C85.5567 43.152 85.3407 44.184 84.9087 45.096C84.4767 46.008 83.8127 46.728 82.9167 47.256C82.0367 47.784 80.9407 48.048 79.6287 48.048C77.9487 48.048 76.5887 47.616 75.5487 46.752C74.5087 45.888 73.8767 44.736 73.6527 43.296H75.7887C75.9967 44.208 76.4367 44.92 77.1087 45.432C77.7807 45.944 78.6287 46.2 79.6527 46.2C80.9167 46.2 81.8687 45.824 82.5087 45.072C83.1487 44.304 83.4687 43.296 83.4687 42.048C83.4687 40.8 83.1487 39.84 82.5087 39.168C81.8687 38.48 80.9247 38.136 79.6767 38.136C78.8287 38.136 78.0847 38.344 77.4447 38.76C76.8207 39.16 76.3647 39.712 76.0767 40.416H74.0127V30.624H84.4527V32.544ZM96.979 25.392L90.403 52.08H88.243L94.795 25.392H96.979ZM110.937 32.544H102.513V38.016C102.881 37.504 103.425 37.088 104.145 36.768C104.865 36.432 105.641 36.264 106.473 36.264C107.801 36.264 108.881 36.544 109.713 37.104C110.545 37.648 111.137 38.36 111.489 39.24C111.857 40.104 112.041 41.024 112.041 42C112.041 43.152 111.825 44.184 111.393 45.096C110.961 46.008 110.297 46.728 109.401 47.256C108.521 47.784 107.425 48.048 106.113 48.048C104.433 48.048 103.073 47.616 102.033 46.752C100.993 45.888 100.361 44.736 100.137 43.296H102.273C102.481 44.208 102.921 44.92 103.593 45.432C104.265 45.944 105.113 46.2 106.137 46.2C107.401 46.2 108.353 45.824 108.993 45.072C109.633 44.304 109.953 43.296 109.953 42.048C109.953 40.8 109.633 39.84 108.993 39.168C108.353 38.48 107.409 38.136 106.161 38.136C105.313 38.136 104.569 38.344 103.929 38.76C103.305 39.16 102.849 39.712 102.561 40.416H100.497V30.624H110.937V32.544Z" fill="#424242"/>
<path d="M68.6799 71L66.6879 67.58H65.3679V71H64.2759V62.636H66.9759C67.6079 62.636 68.1399 62.744 68.5719 62.96C69.0119 63.176 69.3399 63.468 69.5559 63.836C69.7719 64.204 69.8799 64.624 69.8799 65.096C69.8799 65.672 69.7119 66.18 69.3759 66.62C69.0479 67.06 68.5519 67.352 67.8879 67.496L69.9879 71H68.6799ZM65.3679 66.704H66.9759C67.5679 66.704 68.0119 66.56 68.3079 66.272C68.6039 65.976 68.7519 65.584 68.7519 65.096C68.7519 64.6 68.6039 64.216 68.3079 63.944C68.0199 63.672 67.5759 63.536 66.9759 63.536H65.3679V66.704ZM71.1687 67.688C71.1687 67.016 71.3047 66.428 71.5767 65.924C71.8487 65.412 72.2207 65.016 72.6927 64.736C73.1727 64.456 73.7047 64.316 74.2887 64.316C74.8647 64.316 75.3647 64.44 75.7887 64.688C76.2127 64.936 76.5287 65.248 76.7367 65.624V64.424H77.8407V71H76.7367V69.776C76.5207 70.16 76.1967 70.48 75.7647 70.736C75.3407 70.984 74.8447 71.108 74.2767 71.108C73.6927 71.108 73.1647 70.964 72.6927 70.676C72.2207 70.388 71.8487 69.984 71.5767 69.464C71.3047 68.944 71.1687 68.352 71.1687 67.688ZM76.7367 67.7C76.7367 67.204 76.6367 66.772 76.4367 66.404C76.2367 66.036 75.9647 65.756 75.6207 65.564C75.2847 65.364 74.9127 65.264 74.5047 65.264C74.0967 65.264 73.7247 65.36 73.3887 65.552C73.0527 65.744 72.7847 66.024 72.5847 66.392C72.3847 66.76 72.2847 67.192 72.2847 67.688C72.2847 68.192 72.3847 68.632 72.5847 69.008C72.7847 69.376 73.0527 69.66 73.3887 69.86C73.7247 70.052 74.0967 70.148 74.5047 70.148C74.9127 70.148 75.2847 70.052 75.6207 69.86C75.9647 69.66 76.2367 69.376 76.4367 69.008C76.6367 68.632 76.7367 68.196 76.7367 67.7ZM81.0181 65.324V69.2C81.0181 69.52 81.0861 69.748 81.2221 69.884C81.3581 70.012 81.5941 70.076 81.9301 70.076H82.7341V71H81.7501C81.1421 71 80.6861 70.86 80.3821 70.58C80.0781 70.3 79.9261 69.84 79.9261 69.2V65.324H79.0741V64.424H79.9261V62.768H81.0181V64.424H82.7341V65.324H81.0181ZM84.6211 63.356C84.4131 63.356 84.2371 63.284 84.0931 63.14C83.9491 62.996 83.8771 62.82 83.8771 62.612C83.8771 62.404 83.9491 62.228 84.0931 62.084C84.2371 61.94 84.4131 61.868 84.6211 61.868C84.8211 61.868 84.9891 61.94 85.1251 62.084C85.2691 62.228 85.3411 62.404 85.3411 62.612C85.3411 62.82 85.2691 62.996 85.1251 63.14C84.9891 63.284 84.8211 63.356 84.6211 63.356ZM85.1491 64.424V71H84.0571V64.424H85.1491ZM90.2143 64.304C91.0143 64.304 91.6623 64.548 92.1583 65.036C92.6543 65.516 92.9023 66.212 92.9023 67.124V71H91.8223V67.28C91.8223 66.624 91.6583 66.124 91.3303 65.78C91.0023 65.428 90.5543 65.252 89.9863 65.252C89.4103 65.252 88.9503 65.432 88.6063 65.792C88.2703 66.152 88.1023 66.676 88.1023 67.364V71H87.0103V64.424H88.1023V65.36C88.3183 65.024 88.6103 64.764 88.9783 64.58C89.3543 64.396 89.7663 64.304 90.2143 64.304ZM97.3981 64.316C97.9661 64.316 98.4621 64.44 98.8861 64.688C99.3181 64.936 99.6381 65.248 99.8461 65.624V64.424H100.95V71.144C100.95 71.744 100.822 72.276 100.566 72.74C100.31 73.212 99.9421 73.58 99.4621 73.844C98.9901 74.108 98.4381 74.24 97.8061 74.24C96.9421 74.24 96.2221 74.036 95.6461 73.628C95.0701 73.22 94.7301 72.664 94.6261 71.96H95.7061C95.8261 72.36 96.0741 72.68 96.4501 72.92C96.8261 73.168 97.2781 73.292 97.8061 73.292C98.4061 73.292 98.8941 73.104 99.2701 72.728C99.6541 72.352 99.8461 71.824 99.8461 71.144V69.764C99.6301 70.148 99.3101 70.468 98.8861 70.724C98.4621 70.98 97.9661 71.108 97.3981 71.108C96.8141 71.108 96.2821 70.964 95.8021 70.676C95.3301 70.388 94.9581 69.984 94.6861 69.464C94.4141 68.944 94.2781 68.352 94.2781 67.688C94.2781 67.016 94.4141 66.428 94.6861 65.924C94.9581 65.412 95.3301 65.016 95.8021 64.736C96.2821 64.456 96.8141 64.316 97.3981 64.316ZM99.8461 67.7C99.8461 67.204 99.7461 66.772 99.5461 66.404C99.3461 66.036 99.0741 65.756 98.7301 65.564C98.3941 65.364 98.0221 65.264 97.6141 65.264C97.2061 65.264 96.8341 65.36 96.4981 65.552C96.1621 65.744 95.8941 66.024 95.6941 66.392C95.4941 66.76 95.3941 67.192 95.3941 67.688C95.3941 68.192 95.4941 68.632 95.6941 69.008C95.8941 69.376 96.1621 69.66 96.4981 69.86C96.8341 70.052 97.2061 70.148 97.6141 70.148C98.0221 70.148 98.3941 70.052 98.7301 69.86C99.0741 69.66 99.3461 69.376 99.5461 69.008C99.7461 68.632 99.8461 68.196 99.8461 67.7Z" fill="#9D9D9D"/>
<path d="M187.208 46.248C189.24 44.616 190.832 43.28 191.984 42.24C193.136 41.184 194.104 40.088 194.888 38.952C195.688 37.8 196.088 36.672 196.088 35.568C196.088 34.528 195.832 33.712 195.32 33.12C194.824 32.512 194.016 32.208 192.896 32.208C191.808 32.208 190.96 32.552 190.352 33.24C189.76 33.912 189.44 34.816 189.392 35.952H187.28C187.344 34.16 187.888 32.776 188.912 31.8C189.936 30.824 191.256 30.336 192.872 30.336C194.52 30.336 195.824 30.792 196.784 31.704C197.76 32.616 198.248 33.872 198.248 35.472C198.248 36.8 197.848 38.096 197.048 39.36C196.264 40.608 195.368 41.712 194.36 42.672C193.352 43.616 192.064 44.72 190.496 45.984H198.752V47.808H187.208V46.248ZM210.949 34.776C210.597 33 209.501 32.112 207.661 32.112C206.237 32.112 205.173 32.664 204.469 33.768C203.765 34.856 203.421 36.656 203.437 39.168C203.805 38.336 204.413 37.688 205.261 37.224C206.125 36.744 207.085 36.504 208.141 36.504C209.789 36.504 211.101 37.016 212.077 38.04C213.069 39.064 213.565 40.48 213.565 42.288C213.565 43.376 213.349 44.352 212.917 45.216C212.501 46.08 211.861 46.768 210.997 47.28C210.149 47.792 209.117 48.048 207.901 48.048C206.253 48.048 204.965 47.68 204.037 46.944C203.109 46.208 202.461 45.192 202.093 43.896C201.725 42.6 201.541 41 201.541 39.096C201.541 33.224 203.589 30.288 207.685 30.288C209.253 30.288 210.485 30.712 211.381 31.56C212.277 32.408 212.805 33.48 212.965 34.776H210.949ZM207.685 38.352C206.997 38.352 206.349 38.496 205.741 38.784C205.133 39.056 204.637 39.48 204.253 40.056C203.885 40.616 203.701 41.304 203.701 42.12C203.701 43.336 204.053 44.328 204.757 45.096C205.461 45.848 206.469 46.224 207.781 46.224C208.901 46.224 209.789 45.88 210.445 45.192C211.117 44.488 211.453 43.544 211.453 42.36C211.453 41.112 211.133 40.136 210.493 39.432C209.853 38.712 208.917 38.352 207.685 38.352ZM227.575 32.544H219.151V38.016C219.519 37.504 220.063 37.088 220.783 36.768C221.503 36.432 222.279 36.264 223.111 36.264C224.439 36.264 225.519 36.544 226.351 37.104C227.183 37.648 227.775 38.36 228.127 39.24C228.495 40.104 228.679 41.024 228.679 42C228.679 43.152 228.463 44.184 228.031 45.096C227.599 46.008 226.935 46.728 226.039 47.256C225.159 47.784 224.063 48.048 222.751 48.048C221.071 48.048 219.711 47.616 218.671 46.752C217.631 45.888 216.999 44.736 216.775 43.296H218.911C219.119 44.208 219.559 44.92 220.231 45.432C220.903 45.944 221.751 46.2 222.775 46.2C224.039 46.2 224.991 45.824 225.631 45.072C226.271 44.304 226.591 43.296 226.591 42.048C226.591 40.8 226.271 39.84 225.631 39.168C224.991 38.48 224.047 38.136 222.799 38.136C221.951 38.136 221.207 38.344 220.567 38.76C219.943 39.16 219.487 39.712 219.199 40.416H217.135V30.624H227.575V32.544Z" fill="#424242"/>
<path d="M180.693 66.812C180.693 65.996 180.877 65.264 181.245 64.616C181.613 63.96 182.113 63.448 182.745 63.08C183.385 62.712 184.093 62.528 184.869 62.528C185.781 62.528 186.577 62.748 187.257 63.188C187.937 63.628 188.433 64.252 188.745 65.06H187.437C187.205 64.556 186.869 64.168 186.429 63.896C185.997 63.624 185.477 63.488 184.869 63.488C184.285 63.488 183.761 63.624 183.297 63.896C182.833 64.168 182.469 64.556 182.205 65.06C181.941 65.556 181.809 66.14 181.809 66.812C181.809 67.476 181.941 68.06 182.205 68.564C182.469 69.06 182.833 69.444 183.297 69.716C183.761 69.988 184.285 70.124 184.869 70.124C185.477 70.124 185.997 69.992 186.429 69.728C186.869 69.456 187.205 69.068 187.437 68.564H188.745C188.433 69.364 187.937 69.984 187.257 70.424C186.577 70.856 185.781 71.072 184.869 71.072C184.093 71.072 183.385 70.892 182.745 70.532C182.113 70.164 181.613 69.656 181.245 69.008C180.877 68.36 180.693 67.628 180.693 66.812ZM193.635 64.304C194.131 64.304 194.579 64.412 194.979 64.628C195.379 64.836 195.691 65.152 195.915 65.576C196.147 66 196.263 66.516 196.263 67.124V71H195.183V67.28C195.183 66.624 195.019 66.124 194.691 65.78C194.363 65.428 193.915 65.252 193.347 65.252C192.771 65.252 192.311 65.432 191.967 65.792C191.631 66.152 191.463 66.676 191.463 67.364V71H190.371V62.12H191.463V65.36C191.679 65.024 191.975 64.764 192.351 64.58C192.735 64.396 193.163 64.304 193.635 64.304ZM197.639 67.688C197.639 67.016 197.775 66.428 198.047 65.924C198.319 65.412 198.691 65.016 199.163 64.736C199.643 64.456 200.175 64.316 200.759 64.316C201.335 64.316 201.835 64.44 202.259 64.688C202.683 64.936 202.999 65.248 203.207 65.624V64.424H204.311V71H203.207V69.776C202.991 70.16 202.667 70.48 202.235 70.736C201.811 70.984 201.315 71.108 200.747 71.108C200.163 71.108 199.635 70.964 199.163 70.676C198.691 70.388 198.319 69.984 198.047 69.464C197.775 68.944 197.639 68.352 197.639 67.688ZM203.207 67.7C203.207 67.204 203.107 66.772 202.907 66.404C202.707 66.036 202.435 65.756 202.091 65.564C201.755 65.364 201.383 65.264 200.975 65.264C200.567 65.264 200.195 65.36 199.859 65.552C199.523 65.744 199.255 66.024 199.055 66.392C198.855 66.76 198.755 67.192 198.755 67.688C198.755 68.192 198.855 68.632 199.055 69.008C199.255 69.376 199.523 69.66 199.859 69.86C200.195 70.052 200.567 70.148 200.975 70.148C201.383 70.148 201.755 70.052 202.091 69.86C202.435 69.66 202.707 69.376 202.907 69.008C203.107 68.632 203.207 68.196 203.207 67.7ZM207.248 65.636C207.464 65.26 207.784 64.948 208.208 64.7C208.64 64.444 209.14 64.316 209.708 64.316C210.292 64.316 210.82 64.456 211.292 64.736C211.772 65.016 212.148 65.412 212.42 65.924C212.692 66.428 212.828 67.016 212.828 67.688C212.828 68.352 212.692 68.944 212.42 69.464C212.148 69.984 211.772 70.388 211.292 70.676C210.82 70.964 210.292 71.108 209.708 71.108C209.148 71.108 208.652 70.984 208.22 70.736C207.796 70.48 207.472 70.164 207.248 69.788V74.12H206.156V64.424H207.248V65.636ZM211.712 67.688C211.712 67.192 211.612 66.76 211.412 66.392C211.212 66.024 210.94 65.744 210.596 65.552C210.26 65.36 209.888 65.264 209.48 65.264C209.08 65.264 208.708 65.364 208.364 65.564C208.028 65.756 207.756 66.04 207.548 66.416C207.348 66.784 207.248 67.212 207.248 67.7C207.248 68.196 207.348 68.632 207.548 69.008C207.756 69.376 208.028 69.66 208.364 69.86C208.708 70.052 209.08 70.148 209.48 70.148C209.888 70.148 210.26 70.052 210.596 69.86C210.94 69.66 211.212 69.376 211.412 69.008C211.612 68.632 211.712 68.192 211.712 67.688ZM215.598 65.324V69.2C215.598 69.52 215.666 69.748 215.802 69.884C215.938 70.012 216.174 70.076 216.51 70.076H217.314V71H216.33C215.722 71 215.266 70.86 214.962 70.58C214.658 70.3 214.506 69.84 214.506 69.2V65.324H213.654V64.424H214.506V62.768H215.598V64.424H217.314V65.324H215.598ZM224.637 67.46C224.637 67.668 224.625 67.888 224.601 68.12H219.345C219.385 68.768 219.605 69.276 220.005 69.644C220.413 70.004 220.905 70.184 221.481 70.184C221.953 70.184 222.345 70.076 222.657 69.86C222.977 69.636 223.201 69.34 223.329 68.972H224.505C224.329 69.604 223.977 70.12 223.449 70.52C222.921 70.912 222.265 71.108 221.481 71.108C220.857 71.108 220.297 70.968 219.801 70.688C219.313 70.408 218.929 70.012 218.649 69.5C218.369 68.98 218.229 68.38 218.229 67.7C218.229 67.02 218.365 66.424 218.637 65.912C218.909 65.4 219.289 65.008 219.777 64.736C220.273 64.456 220.841 64.316 221.481 64.316C222.105 64.316 222.657 64.452 223.137 64.724C223.617 64.996 223.985 65.372 224.241 65.852C224.505 66.324 224.637 66.86 224.637 67.46ZM223.509 67.232C223.509 66.816 223.417 66.46 223.233 66.164C223.049 65.86 222.797 65.632 222.477 65.48C222.165 65.32 221.817 65.24 221.433 65.24C220.881 65.24 220.409 65.416 220.017 65.768C219.633 66.12 219.413 66.608 219.357 67.232H223.509ZM227.17 65.492C227.362 65.116 227.634 64.824 227.986 64.616C228.346 64.408 228.782 64.304 229.294 64.304V65.432H229.006C227.782 65.432 227.17 66.096 227.17 67.424V71H226.078V64.424H227.17V65.492ZM232.883 71.108C232.379 71.108 231.927 71.024 231.527 70.856C231.127 70.68 230.811 70.44 230.579 70.136C230.347 69.824 230.219 69.468 230.195 69.068H231.323C231.355 69.396 231.507 69.664 231.779 69.872C232.059 70.08 232.423 70.184 232.871 70.184C233.287 70.184 233.615 70.092 233.855 69.908C234.095 69.724 234.215 69.492 234.215 69.212C234.215 68.924 234.087 68.712 233.831 68.576C233.575 68.432 233.179 68.292 232.643 68.156C232.155 68.028 231.755 67.9 231.443 67.772C231.139 67.636 230.875 67.44 230.651 67.184C230.435 66.92 230.327 66.576 230.327 66.152C230.327 65.816 230.427 65.508 230.627 65.228C230.827 64.948 231.111 64.728 231.479 64.568C231.847 64.4 232.267 64.316 232.739 64.316C233.467 64.316 234.055 64.5 234.503 64.868C234.951 65.236 235.191 65.74 235.223 66.38H234.131C234.107 66.036 233.967 65.76 233.711 65.552C233.463 65.344 233.127 65.24 232.703 65.24C232.311 65.24 231.999 65.324 231.767 65.492C231.535 65.66 231.419 65.88 231.419 66.152C231.419 66.368 231.487 66.548 231.623 66.692C231.767 66.828 231.943 66.94 232.151 67.028C232.367 67.108 232.663 67.2 233.039 67.304C233.511 67.432 233.895 67.56 234.191 67.688C234.487 67.808 234.739 67.992 234.947 68.24C235.163 68.488 235.275 68.812 235.283 69.212C235.283 69.572 235.183 69.896 234.983 70.184C234.783 70.472 234.499 70.7 234.131 70.868C233.771 71.028 233.355 71.108 232.883 71.108Z" fill="#9D9D9D"/>
<path d="M301.793 33.048V38.64H307.889V40.44H301.793V46.2H308.609V48H299.609V31.248H308.609V33.048H301.793ZM318.322 34.608C319.922 34.608 321.218 35.096 322.21 36.072C323.202 37.032 323.698 38.424 323.698 40.248V48H321.538V40.56C321.538 39.248 321.21 38.248 320.554 37.56C319.898 36.856 319.002 36.504 317.866 36.504C316.714 36.504 315.794 36.864 315.106 37.584C314.434 38.304 314.098 39.352 314.098 40.728V48H311.914V34.848H314.098V36.72C314.53 36.048 315.114 35.528 315.85 35.16C316.602 34.792 317.426 34.608 318.322 34.608ZM332.69 34.632C333.826 34.632 334.818 34.88 335.666 35.376C336.53 35.872 337.17 36.496 337.586 37.248V34.848H339.794V48.288C339.794 49.488 339.538 50.552 339.026 51.48C338.514 52.424 337.778 53.16 336.818 53.688C335.874 54.216 334.77 54.48 333.506 54.48C331.778 54.48 330.338 54.072 329.186 53.256C328.034 52.44 327.354 51.328 327.146 49.92H329.306C329.546 50.72 330.042 51.36 330.794 51.84C331.546 52.336 332.45 52.584 333.506 52.584C334.706 52.584 335.682 52.208 336.434 51.456C337.202 50.704 337.586 49.648 337.586 48.288V45.528C337.154 46.296 336.514 46.936 335.666 47.448C334.818 47.96 333.826 48.216 332.69 48.216C331.522 48.216 330.458 47.928 329.498 47.352C328.554 46.776 327.81 45.968 327.266 44.928C326.722 43.888 326.45 42.704 326.45 41.376C326.45 40.032 326.722 38.856 327.266 37.848C327.81 36.824 328.554 36.032 329.498 35.472C330.458 34.912 331.522 34.632 332.69 34.632ZM337.586 41.4C337.586 40.408 337.386 39.544 336.986 38.808C336.586 38.072 336.042 37.512 335.354 37.128C334.682 36.728 333.938 36.528 333.122 36.528C332.306 36.528 331.562 36.72 330.89 37.104C330.218 37.488 329.682 38.048 329.282 38.784C328.882 39.52 328.682 40.384 328.682 41.376C328.682 42.384 328.882 43.264 329.282 44.016C329.682 44.752 330.218 45.32 330.89 45.72C331.562 46.104 332.306 46.296 333.122 46.296C333.938 46.296 334.682 46.104 335.354 45.72C336.042 45.32 336.586 44.752 336.986 44.016C337.386 43.264 337.586 42.392 337.586 41.4Z" fill="#424242"/>
<path d="M291.51 70.112H294.438V71H290.418V62.636H291.51V70.112ZM295.19 67.688C295.19 67.016 295.326 66.428 295.598 65.924C295.87 65.412 296.242 65.016 296.714 64.736C297.194 64.456 297.726 64.316 298.31 64.316C298.886 64.316 299.386 64.44 299.81 64.688C300.234 64.936 300.55 65.248 300.758 65.624V64.424H301.862V71H300.758V69.776C300.542 70.16 300.218 70.48 299.786 70.736C299.362 70.984 298.866 71.108 298.298 71.108C297.714 71.108 297.186 70.964 296.714 70.676C296.242 70.388 295.87 69.984 295.598 69.464C295.326 68.944 295.19 68.352 295.19 67.688ZM300.758 67.7C300.758 67.204 300.658 66.772 300.458 66.404C300.258 66.036 299.986 65.756 299.642 65.564C299.306 65.364 298.934 65.264 298.526 65.264C298.118 65.264 297.746 65.36 297.41 65.552C297.074 65.744 296.806 66.024 296.606 66.392C296.406 66.76 296.306 67.192 296.306 67.688C296.306 68.192 296.406 68.632 296.606 69.008C296.806 69.376 297.074 69.66 297.41 69.86C297.746 70.052 298.118 70.148 298.526 70.148C298.934 70.148 299.306 70.052 299.642 69.86C299.986 69.66 300.258 69.376 300.458 69.008C300.658 68.632 300.758 68.196 300.758 67.7ZM306.911 64.304C307.711 64.304 308.359 64.548 308.855 65.036C309.351 65.516 309.599 66.212 309.599 67.124V71H308.519V67.28C308.519 66.624 308.355 66.124 308.027 65.78C307.699 65.428 307.251 65.252 306.683 65.252C306.107 65.252 305.647 65.432 305.303 65.792C304.967 66.152 304.799 66.676 304.799 67.364V71H303.707V64.424H304.799V65.36C305.015 65.024 305.307 64.764 305.675 64.58C306.051 64.396 306.463 64.304 306.911 64.304ZM314.095 64.316C314.663 64.316 315.159 64.44 315.583 64.688C316.015 64.936 316.335 65.248 316.543 65.624V64.424H317.647V71.144C317.647 71.744 317.519 72.276 317.263 72.74C317.007 73.212 316.639 73.58 316.159 73.844C315.687 74.108 315.135 74.24 314.503 74.24C313.639 74.24 312.919 74.036 312.343 73.628C311.767 73.22 311.427 72.664 311.323 71.96H312.403C312.523 72.36 312.771 72.68 313.147 72.92C313.523 73.168 313.975 73.292 314.503 73.292C315.103 73.292 315.591 73.104 315.967 72.728C316.351 72.352 316.543 71.824 316.543 71.144V69.764C316.327 70.148 316.007 70.468 315.583 70.724C315.159 70.98 314.663 71.108 314.095 71.108C313.511 71.108 312.979 70.964 312.499 70.676C312.027 70.388 311.655 69.984 311.383 69.464C311.111 68.944 310.975 68.352 310.975 67.688C310.975 67.016 311.111 66.428 311.383 65.924C311.655 65.412 312.027 65.016 312.499 64.736C312.979 64.456 313.511 64.316 314.095 64.316ZM316.543 67.7C316.543 67.204 316.443 66.772 316.243 66.404C316.043 66.036 315.771 65.756 315.427 65.564C315.091 65.364 314.719 65.264 314.311 65.264C313.903 65.264 313.531 65.36 313.195 65.552C312.859 65.744 312.591 66.024 312.391 66.392C312.191 66.76 312.091 67.192 312.091 67.688C312.091 68.192 312.191 68.632 312.391 69.008C312.591 69.376 312.859 69.66 313.195 69.86C313.531 70.052 313.903 70.148 314.311 70.148C314.719 70.148 315.091 70.052 315.427 69.86C315.771 69.66 316.043 69.376 316.243 69.008C316.443 68.632 316.543 68.196 316.543 67.7ZM325.324 64.424V71H324.232V70.028C324.024 70.364 323.732 70.628 323.356 70.82C322.988 71.004 322.58 71.096 322.132 71.096C321.62 71.096 321.16 70.992 320.752 70.784C320.344 70.568 320.02 70.248 319.78 69.824C319.548 69.4 319.432 68.884 319.432 68.276V64.424H320.512V68.132C320.512 68.78 320.676 69.28 321.004 69.632C321.332 69.976 321.78 70.148 322.348 70.148C322.932 70.148 323.392 69.968 323.728 69.608C324.064 69.248 324.232 68.724 324.232 68.036V64.424H325.324ZM326.76 67.688C326.76 67.016 326.896 66.428 327.168 65.924C327.44 65.412 327.812 65.016 328.284 64.736C328.764 64.456 329.296 64.316 329.88 64.316C330.456 64.316 330.956 64.44 331.38 64.688C331.804 64.936 332.12 65.248 332.328 65.624V64.424H333.432V71H332.328V69.776C332.112 70.16 331.788 70.48 331.356 70.736C330.932 70.984 330.436 71.108 329.868 71.108C329.284 71.108 328.756 70.964 328.284 70.676C327.812 70.388 327.44 69.984 327.168 69.464C326.896 68.944 326.76 68.352 326.76 67.688ZM332.328 67.7C332.328 67.204 332.228 66.772 332.028 66.404C331.828 66.036 331.556 65.756 331.212 65.564C330.876 65.364 330.504 65.264 330.096 65.264C329.688 65.264 329.316 65.36 328.98 65.552C328.644 65.744 328.376 66.024 328.176 66.392C327.976 66.76 327.876 67.192 327.876 67.688C327.876 68.192 327.976 68.632 328.176 69.008C328.376 69.376 328.644 69.66 328.98 69.86C329.316 70.052 329.688 70.148 330.096 70.148C330.504 70.148 330.876 70.052 331.212 69.86C331.556 69.66 331.828 69.376 332.028 69.008C332.228 68.632 332.328 68.196 332.328 67.7ZM337.989 64.316C338.557 64.316 339.053 64.44 339.477 64.688C339.909 64.936 340.229 65.248 340.437 65.624V64.424H341.541V71.144C341.541 71.744 341.413 72.276 341.157 72.74C340.901 73.212 340.533 73.58 340.053 73.844C339.581 74.108 339.029 74.24 338.397 74.24C337.533 74.24 336.813 74.036 336.237 73.628C335.661 73.22 335.321 72.664 335.217 71.96H336.297C336.417 72.36 336.665 72.68 337.041 72.92C337.417 73.168 337.869 73.292 338.397 73.292C338.997 73.292 339.485 73.104 339.861 72.728C340.245 72.352 340.437 71.824 340.437 71.144V69.764C340.221 70.148 339.901 70.468 339.477 70.724C339.053 70.98 338.557 71.108 337.989 71.108C337.405 71.108 336.873 70.964 336.393 70.676C335.921 70.388 335.549 69.984 335.277 69.464C335.005 68.944 334.869 68.352 334.869 67.688C334.869 67.016 335.005 66.428 335.277 65.924C335.549 65.412 335.921 65.016 336.393 64.736C336.873 64.456 337.405 64.316 337.989 64.316ZM340.437 67.7C340.437 67.204 340.337 66.772 340.137 66.404C339.937 66.036 339.665 65.756 339.321 65.564C338.985 65.364 338.613 65.264 338.205 65.264C337.797 65.264 337.425 65.36 337.089 65.552C336.753 65.744 336.485 66.024 336.285 66.392C336.085 66.76 335.985 67.192 335.985 67.688C335.985 68.192 336.085 68.632 336.285 69.008C336.485 69.376 336.753 69.66 337.089 69.86C337.425 70.052 337.797 70.148 338.205 70.148C338.613 70.148 338.985 70.052 339.321 69.86C339.665 69.66 339.937 69.376 340.137 69.008C340.337 68.632 340.437 68.196 340.437 67.7ZM349.387 67.46C349.387 67.668 349.375 67.888 349.351 68.12H344.095C344.135 68.768 344.355 69.276 344.755 69.644C345.163 70.004 345.655 70.184 346.231 70.184C346.703 70.184 347.095 70.076 347.407 69.86C347.727 69.636 347.951 69.34 348.079 68.972H349.255C349.079 69.604 348.727 70.12 348.199 70.52C347.671 70.912 347.015 71.108 346.231 71.108C345.607 71.108 345.047 70.968 344.551 70.688C344.063 70.408 343.679 70.012 343.399 69.5C343.119 68.98 342.979 68.38 342.979 67.7C342.979 67.02 343.115 66.424 343.387 65.912C343.659 65.4 344.039 65.008 344.527 64.736C345.023 64.456 345.591 64.316 346.231 64.316C346.855 64.316 347.407 64.452 347.887 64.724C348.367 64.996 348.735 65.372 348.991 65.852C349.255 66.324 349.387 66.86 349.387 67.46ZM348.259 67.232C348.259 66.816 348.167 66.46 347.983 66.164C347.799 65.86 347.547 65.632 347.227 65.48C346.915 65.32 346.567 65.24 346.183 65.24C345.631 65.24 345.159 65.416 344.767 65.768C344.383 66.12 344.163 66.608 344.107 67.232H348.259Z" fill="#9D9D9D"/>
<line x1="144.626" y1="30.5" x2="144.626" y2="59.5" stroke="#9D9D9D" stroke-linecap="round"/>
<line x1="259.966" y1="30.5" x2="259.966" y2="59.5" stroke="#9D9D9D" stroke-linecap="round"/>
<defs>
<filter id="filter0_d_2597_2484" x="0" y="0" width="410" height="94" filterUnits="userSpaceOnUse" color-interpolation-filters="sRGB">
<feFlood flood-opacity="0" result="BackgroundImageFix"/>
<feColorMatrix in="SourceAlpha" type="matrix" values="0 0 0 0 0 0 0 0 0 0 0 0 0 0 0 0 0 0 127 0" result="hardAlpha"/>
<feOffset dy="2"/>
<feGaussianBlur stdDeviation="3.5"/>
<feComposite in2="hardAlpha" operator="out"/>
<feColorMatrix type="matrix" values="0 0 0 0 0 0 0 0 0 0 0 0 0 0 0 0 0 0 0.15 0"/>
<feBlend mode="normal" in2="BackgroundImageFix" result="effect1_dropShadow_2597_2484"/>
<feBlend mode="normal" in="SourceGraphic" in2="effect1_dropShadow_2597_2484" result="shape"/>
</filter>
</defs>
</svg>
